# xmcd CD database file
#
# Track frame offsets:
#	150
#	16311
#	31522
#	48343
#	61197
#	73025
#	88954
#	109533
#	127553
#	146021
#	161145
#	173416
#
# Disc length: 2497 seconds
#
# Revision: 0
# Processed by: cddbd v1.5.2PL0 Copyright (c) Steve Scherf et al.
# Submitted via: CDex 1.70beta2
#
DISCID=8f09bf0c
DTITLE=Ronny E Rangel - A Dama E O Vagabundo
DYEAR=2006
DGENRE=Country
TTITLE0=A Dama E O Vagabundo
TTITLE1=Eminência Parda
TTITLE2=Pra Mim Não Acabou
TTITLE3=É Na Balada
TTITLE4=Batedeira Louca
TTITLE5=Apaixonado Por Ela
TTITLE6=Dois
TTITLE7=Rosanna
TTITLE8=Fui Eu
TTITLE9=No Batidão Da Viola
TTITLE10=Choradeira De Amor
TTITLE11=O Povo Fala Com Razão
EXTD=YEAR: 2006
EXTT0=
EXTT1=
EXTT2=
EXTT3=
EXTT4=
EXTT5=
EXTT6=
EXTT7=
EXTT8=
EXTT9=
EXTT10=
EXTT11=
PLAYORDER=
